# xmcd CD database file
#
# Track frame offsets:
#	150
#	12950
#	31060
#	63980
#	90792
#	108492
#	147440
#	182417
#	195953
#	218660
#	240195
#	264400
#	296709
#
# Disc length: 4296 seconds
#
# Revision: 0
# Processed by: cddbd v1.5.2PL0 Copyright (c) Steve Scherf et al.
# Submitted via: CDex 1.51
#
DISCID=a110c60d
DTITLE=Various Artist - Jazz Magazine Nr. 50
DYEAR=2007
DGENRE=Jazz
TTITLE0=JOHN PROULX - I've never been in love before
TTITLE1=LOUIS HAYES and THE CANNOBALL LEGACY BAND - Lisa
TTITLE2=JEFF RICHMANN - Aja
TTITLE3=MARK FELDMAM - Father demo square
TTITLE4=CAT'S PAJAMAS - My favorite things
TTITLE5=NURSERY FOUR - Evita de Romperte El Peron
TTITLE6=CARLO NICITA&ROSARIO DI ROS SEXTET - More
TTITLE7=TONY BENNETT - Cinnamon sinner
TTITLE8=JACK DEJOHNETTE - Storm clouds and mist
TTITLE9=AL DI MEOLA - African suite
TTITLE10=CORDOBA REUNION - Danza de las madres
TTITLE11=FULVIO BUCCAFUSCO - Tango matto
TTITLE12=ROBERTA GAMBARINI - On the sunny of the street
EXTD=YEAR: 2007
EXTT0=
EXTT1=
EXTT2=
EXTT3=
EXTT4=
EXTT5=
EXTT6=
EXTT7=
EXTT8=
EXTT9=
EXTT10=
EXTT11=
EXTT12=
PLAYORDER=
